name D:\school\WTK\thesis\model\3dpredictsim\Results\batch_windlass\Pog_s1_tmt_aCst_d00_k800_WL20_ig24_pas.mot
datacolumns 128
datarows 4
range 1.05199954 1.08355952
endheader
time	pelvis_tilt	pelvis_list	pelvis_rotation	pelvis_tx	pelvis_ty	pelvis_tz	hip_flexion_l	hip_adduction_l	hip_rotation_l	hip_flexion_r	hip_adduction_r	hip_rotation_r	knee_angle_l	knee_angle_r	ankle_angle_l	ankle_angle_r	subtalar_angle_l	subtalar_angle_r	tmt_angle_l	tmt_angle_r	mtp_angle_l	mtp_angle_r	lumbar_extension	lumbar_bending	lumbar_rotation	arm_flex_l	arm_add_l	arm_rot_l	arm_flex_r	arm_add_r	arm_rot_r	elbow_flex_l	elbow_flex_r	pro_sup_l	pro_sup_r	glut_med1_l/activation	glut_med2_l/activation	glut_med3_l/activation	glut_min1_l/activation	glut_min2_l/activation	glut_min3_l/activation	semimem_l/activation	semiten_l/activation	bifemlh_l/activation	bifemsh_l/activation	sar_l/activation	add_long_l/activation	add_brev_l/activation	add_mag1_l/activation	add_mag2_l/activation	add_mag3_l/activation	tfl_l/activation	pect_l/activation	grac_l/activation	glut_max1_l/activation	glut_max2_l/activation	glut_max3_l/activation	iliacus_l/activation	psoas_l/activation	quad_fem_l/activation	gem_l/activation	peri_l/activation	rect_fem_l/activation	vas_med_l/activation	vas_int_l/activation	vas_lat_l/activation	med_gas_l/activation	lat_gas_l/activation	soleus_l/activation	tib_post_l/activation	flex_dig_l/activation	flex_hal_l/activation	tib_ant_l/activation	per_brev_l/activation	per_long_l/activation	per_tert_l/activation	ext_dig_l/activation	ext_hal_l/activation	ercspn_l/activation	intobl_l/activation	extobl_l/activation	glut_med1_r/activation	glut_med2_r/activation	glut_med3_r/activation	glut_min1_r/activation	glut_min2_r/activation	glut_min3_r/activation	semimem_r/activation	semiten_r/activation	bifemlh_r/activation	bifemsh_r/activation	sar_r/activation	add_long_r/activation	add_brev_r/activation	add_mag1_r/activation	add_mag2_r/activation	add_mag3_r/activation	tfl_r/activation	pect_r/activation	grac_r/activation	glut_max1_r/activation	glut_max2_r/activation	glut_max3_r/activation	iliacus_r/activation	psoas_r/activation	quad_fem_r/activation	gem_r/activation	peri_r/activation	rect_fem_r/activation	vas_med_r/activation	vas_int_r/activation	vas_lat_r/activation	med_gas_r/activation	lat_gas_r/activation	soleus_r/activation	tib_post_r/activation	flex_dig_r/activation	flex_hal_r/activation	tib_ant_r/activation	per_brev_r/activation	per_long_r/activation	per_tert_r/activation	ext_dig_r/activation	ext_hal_r/activation	ercspn_r/activation	intobl_r/activation	extobl_r/activation	
          1.05199954	         -2.90822932	         -1.42633994	          6.30637585	          1.31499942	          0.85641099	         -0.00244100	        -18.45597999	         -1.66542912	          9.44669294	         31.53209024	          2.39093941	         -2.72414168	        -10.11632528	        -20.70479801	         -2.40870056	         -5.51960074	         12.07388181	         -3.12227848	         -5.43644219	          0.05385890	         29.23333352	         -0.24771756	         -0.57390695	         -0.31362027	         -1.86603965	          5.75825079	        -13.48725053	         16.80320608	        -10.10215488	        -13.77283227	         10.13322446	         32.47975023	         16.84431264	         86.51662706	         86.51662706	          0.25333660	          0.08118125	          0.05000012	          0.29269454	          0.18519560	          0.08649737	          0.05000220	          0.05000035	          0.05000030	          0.06757787	          0.09541411	          0.11668945	          0.05012436	          0.05000124	          0.05000289	          0.05000208	          0.31915101	          0.07010184	          0.05000116	          0.05000310	          0.05000188	          0.05000163	          0.33457042	          0.53228187	          0.05000028	          0.05000091	          0.05000010	          0.21407393	          0.09327660	          0.05000108	          0.08112233	          0.27751742	          0.34927884	          0.22762199	          0.18506381	          0.19215673	          0.25288668	          0.05000006	          0.14385240	          0.16932849	          0.05000023	          0.05000022	          0.05000018	          0.05000000	          0.07303043	          0.05000079	          0.05000018	          0.05000016	          0.05000013	          0.05000066	          0.05000044	          0.05000041	          0.05000070	          0.05000093	          0.26010810	          0.05000031	          0.05007496	          0.13181150	          0.16347708	          0.21153060	          0.16308889	          0.10668799	          0.05001649	          0.06720271	          0.08394780	          0.05000016	          0.05000015	          0.05000051	          0.07355317	          0.06932809	          0.20185031	          0.05000138	          0.05000049	          0.07357552	          0.18188676	          0.17596203	          0.15370546	          0.05876672	          0.05876710	          0.05876666	          0.05000002	          0.05000017	          0.05000017	          0.30763447	          0.13160226	          0.09519479	          0.39436917	          0.64439234	          0.10481064	          0.05000004	          0.11147208	          0.11848946	
          1.06251953	         -2.89057621	         -1.59786659	          6.58477584	          1.33135370	          0.85536152	         -0.00222029	        -18.03209240	         -2.01817965	          9.20518753	         30.96666981	          2.91319058	         -2.41641923	        -12.41032070	        -20.84255695	         -3.40228770	         -5.78065016	         13.16394150	         -4.03574156	         -5.90966265	          0.11828144	         29.93507062	         -0.20609602	         -0.34569355	         -0.00487358	         -1.92988249	          5.47654117	        -13.52735940	         17.12207942	        -11.14613158	        -13.76354214	          9.93606360	         33.42115220	         16.78197996	         86.51662706	         86.51662706	          0.21554455	          0.06907086	          0.05000007	          0.24903122	          0.15756865	          0.07359396	          0.05822972	          0.05000016	          0.05000017	          0.05749682	          0.08118066	          0.18728365	          0.27433536	          0.08644864	          0.05000348	          0.05000091	          0.27154495	          0.10160281	          0.05000066	          0.05000076	          0.05000049	          0.05000041	          0.28466007	          0.45287841	          0.05000008	          0.05000068	          0.05000612	          0.18213896	          0.07936242	          0.15484925	          0.11509927	          0.23611808	          0.29717431	          0.19366591	          0.15745649	          0.16349141	          0.21516177	          0.13071826	          0.12239305	          0.14406857	          0.05000031	          0.15696881	          0.05000805	          0.05000156	          0.06907036	          0.05229699	          0.08029481	          0.05000074	          0.05000144	          0.05000044	          0.05000100	          0.05000140	          0.05000011	          0.05000018	          0.22249294	          0.05876480	          0.05876656	          0.11214829	          0.13909007	          0.17997559	          0.13877370	          0.14669881	          0.05000031	          0.05717839	          0.07142498	          0.05876642	          0.13074731	          0.12349623	          0.06258076	          0.05898595	          0.32506484	          0.05876672	          0.05000092	          0.06259975	          0.25488556	          0.24687343	          0.21466382	          0.05000005	          0.05000038	          0.05000000	          0.15615744	          0.10339464	          0.06830315	          0.48705957	          0.11197018	          0.08099388	          0.33553830	          0.66275659	          0.42543308	          0.05000002	          0.09484296	          0.10081351	
          1.07303953	         -2.86892186	         -1.77489721	          6.83544523	          1.34787618	          0.85411178	         -0.00202236	        -17.49989135	         -2.35030061	          8.95017835	         30.22782645	          3.40752397	         -2.02394227	        -14.91237760	        -21.37005093	         -4.39730799	         -5.62308297	         14.17376210	         -5.05609480	         -6.22656480	          0.01604732	         29.95097430	         -0.11536953	         -0.10646547	          0.31676111	         -1.97956482	          5.12848011	        -13.57331988	         17.35532494	        -12.15876415	        -13.76242709	          9.83928714	         34.37266021	         16.66456880	         86.51662706	         86.51662706	          0.18339028	          0.05876708	          0.05000029	          0.21188146	          0.13406302	          0.06261545	          0.08464299	          0.05000229	          0.05001059	          0.05000011	          0.06907047	          0.21603568	          0.41302218	          0.12878978	          0.08953986	          0.11235925	          0.29407407	          0.08644652	          0.05000730	          0.05036299	          0.05874376	          0.05876575	          0.24219523	          0.40536828	          0.05197699	          0.05000293	          0.05000010	          0.15496794	          0.06752345	          0.13174930	          0.09792912	          0.20089458	          0.25284261	          0.16477532	          0.13396757	          0.13910232	          0.18306460	          0.21978291	          0.11471032	          0.12257742	          0.33159537	          0.24929327	          0.14537269	          0.10056829	          0.05876664	          0.05061277	          0.30825804	          0.28966902	          0.36921707	          0.05000273	          0.05000037	          0.05000019	          0.07993515	          0.10715966	          0.18930207	          0.05000004	          0.05000013	          0.09541846	          0.26295316	          0.27832565	          0.25513453	          0.16847365	          0.05000021	          0.06907207	          0.13674747	          0.05000022	          0.20505993	          0.17809889	          0.05324521	          0.05018664	          0.27657260	          0.05000028	          0.21079979	          0.05326130	          0.26950116	          0.26967542	          0.23392230	          0.05876666	          0.05876666	          0.05876666	          0.13286229	          0.08797055	          0.05811393	          0.41440126	          0.11688837	          0.08118086	          0.34763994	          0.59607251	          0.36196813	          0.05000004	          0.08069454	          0.08577441	
          1.08355952	         -2.84552006	         -1.95594405	          7.05110075	          1.36432855	          0.85277238	         -0.00182026	        -16.81682306	         -2.65448667	          8.70376120	         29.33260534	          3.88906486	         -1.61201335	        -17.67572974	        -21.88820747	         -5.30653620	         -4.92051017	         15.07663146	         -6.01680182	         -6.18892408	          0.19547760	         28.79185234	          0.01476227	          0.12534996	          0.64473813	         -2.01743876	          4.75427415	        -13.62114436	         17.51843708	        -13.08105773	        -13.76571980	          9.86581512	         35.29670204	         16.45749487	         86.51662706	         86.51662706	          0.15603265	          0.05000041	          0.05000003	          0.18027363	          0.11406392	          0.05327474	          0.12107505	          0.05000023	          0.05000024	          0.05000016	          0.05876697	          0.21131142	          0.39272086	          0.10957774	          0.07618430	          0.09559825	          0.33985465	          0.07355140	          0.05000058	          0.05000068	          0.05000047	          0.05000044	          0.20606518	          0.35060842	          0.05000006	          0.05000032	          0.05000022	          0.13185028	          0.05745093	          0.11209556	          0.08332329	          0.17092564	          0.21512420	          0.14019456	          0.11982067	          0.11835181	          0.15575700	          0.18699643	          0.09759839	          0.10429171	          0.28212888	          0.23606539	          0.12368646	          0.12317630	          0.05000001	          0.05000003	          0.37040984	          0.49206576	          0.62924092	          0.17026293	          0.33104728	          0.40473934	          0.06801069	          0.09117530	          0.16106248	          0.06907013	          0.05000176	          0.08118420	          0.22372649	          0.23680584	          0.21707443	          0.16666515	          0.05000023	          0.05876834	          0.11634803	          0.30712883	          0.27083368	          0.17333134	          0.05000008	          0.05000008	          0.23531441	          0.11186505	          0.21386104	          0.05000001	          0.34523642	          0.35144001	          0.30297278	          0.05000001	          0.05000003	          0.05000000	          0.22260536	          0.09996596	          0.05000038	          0.49898751	          0.09945127	          0.06907052	          0.29577999	          0.52655850	          0.42823797	          0.06769925	          0.06865675	          0.07297880	
